<mxfile host="app.diagrams.net" modified="2023-11-17T03:00:51.397Z" agent="Mozilla/5.0 (Macintosh; Intel Mac OS X 10_15_7) AppleWebKit/537.36 (KHTML, like Gecko) Chrome/119.0.0.0 Safari/537.36" etag="wEmkNfxah_Uhp4ps0jlr" version="22.1.2" type="github">
  <diagram name="Page-1" id="zNUJPKXi0MtJBKeHGmJv">
    <mxGraphModel dx="1453" dy="664" grid="1" gridSize="10" guides="1" tooltips="1" connect="1" arrows="1" fold="1" page="1" pageScale="1" pageWidth="827" pageHeight="1169" math="0" shadow="0">
      <root>
        <mxCell id="0" />
        <mxCell id="1" parent="0" />
        <mxCell id="lGg8nvy98Ju2vaixH_hz-13" value="Horizontal Flow Layout" style="swimlane;html=1;startSize=20;horizontal=0;childLayout=flowLayout;flowOrientation=west;resizable=0;interRankCellSpacing=50;containerType=tree;fontSize=12;" vertex="1" parent="1">
          <mxGeometry x="90" y="120" width="460" height="360" as="geometry" />
        </mxCell>
        <mxCell id="lGg8nvy98Ju2vaixH_hz-14" value="MR/" style="whiteSpace=wrap;html=1;" vertex="1" parent="lGg8nvy98Ju2vaixH_hz-13">
          <mxGeometry x="40" y="160" width="100" height="40" as="geometry" />
        </mxCell>
        <mxCell id="lGg8nvy98Ju2vaixH_hz-15" value="Task" style="whiteSpace=wrap;html=1;" vertex="1" parent="lGg8nvy98Ju2vaixH_hz-13">
          <mxGeometry x="190" y="20" width="100" height="40" as="geometry" />
        </mxCell>
        <mxCell id="lGg8nvy98Ju2vaixH_hz-16" value="" style="html=1;rounded=1;curved=0;sourcePerimeterSpacing=0;targetPerimeterSpacing=0;startSize=6;endSize=6;noEdgeStyle=1;orthogonal=1;" edge="1" parent="lGg8nvy98Ju2vaixH_hz-13" source="lGg8nvy98Ju2vaixH_hz-14" target="lGg8nvy98Ju2vaixH_hz-15">
          <mxGeometry relative="1" as="geometry">
            <Array as="points">
              <mxPoint x="152" y="164" />
              <mxPoint x="178" y="40" />
            </Array>
          </mxGeometry>
        </mxCell>
        <mxCell id="lGg8nvy98Ju2vaixH_hz-17" value="Task" style="whiteSpace=wrap;html=1;" vertex="1" parent="lGg8nvy98Ju2vaixH_hz-13">
          <mxGeometry x="190" y="90" width="100" height="40" as="geometry" />
        </mxCell>
        <mxCell id="lGg8nvy98Ju2vaixH_hz-18" value="" style="html=1;rounded=1;curved=0;sourcePerimeterSpacing=0;targetPerimeterSpacing=0;startSize=6;endSize=6;noEdgeStyle=1;orthogonal=1;" edge="1" parent="lGg8nvy98Ju2vaixH_hz-13" source="lGg8nvy98Ju2vaixH_hz-14" target="lGg8nvy98Ju2vaixH_hz-17">
          <mxGeometry relative="1" as="geometry">
            <Array as="points">
              <mxPoint x="154" y="172" />
              <mxPoint x="178" y="110" />
            </Array>
          </mxGeometry>
        </mxCell>
        <mxCell id="lGg8nvy98Ju2vaixH_hz-19" value="End" style="whiteSpace=wrap;html=1;" vertex="1" parent="lGg8nvy98Ju2vaixH_hz-13">
          <mxGeometry x="340" y="55" width="100" height="40" as="geometry" />
        </mxCell>
        <mxCell id="lGg8nvy98Ju2vaixH_hz-20" value="" style="html=1;rounded=1;curved=0;sourcePerimeterSpacing=0;targetPerimeterSpacing=0;startSize=6;endSize=6;noEdgeStyle=1;orthogonal=1;" edge="1" parent="lGg8nvy98Ju2vaixH_hz-13" source="lGg8nvy98Ju2vaixH_hz-15" target="lGg8nvy98Ju2vaixH_hz-19">
          <mxGeometry relative="1" as="geometry">
            <Array as="points">
              <mxPoint x="302" y="40" />
              <mxPoint x="328" y="67.5" />
            </Array>
          </mxGeometry>
        </mxCell>
        <mxCell id="lGg8nvy98Ju2vaixH_hz-21" value="" style="html=1;rounded=1;curved=0;sourcePerimeterSpacing=0;targetPerimeterSpacing=0;startSize=6;endSize=6;noEdgeStyle=1;orthogonal=1;" edge="1" parent="lGg8nvy98Ju2vaixH_hz-13" source="lGg8nvy98Ju2vaixH_hz-17" target="lGg8nvy98Ju2vaixH_hz-19">
          <mxGeometry relative="1" as="geometry">
            <Array as="points">
              <mxPoint x="302" y="110" />
              <mxPoint x="328" y="82.5" />
            </Array>
          </mxGeometry>
        </mxCell>
        <mxCell id="lGg8nvy98Ju2vaixH_hz-22" value="" style="html=1;rounded=1;curved=0;sourcePerimeterSpacing=0;targetPerimeterSpacing=0;startSize=6;endSize=6;noEdgeStyle=1;orthogonal=1;" edge="1" target="lGg8nvy98Ju2vaixH_hz-23" source="lGg8nvy98Ju2vaixH_hz-14" parent="lGg8nvy98Ju2vaixH_hz-13">
          <mxGeometry relative="1" as="geometry">
            <mxPoint x="390" y="283" as="sourcePoint" />
            <Array as="points">
              <mxPoint x="156" y="180" />
              <mxPoint x="178" y="180" />
            </Array>
          </mxGeometry>
        </mxCell>
        <mxCell id="lGg8nvy98Ju2vaixH_hz-23" value="Task" style="whiteSpace=wrap;html=1;" vertex="1" parent="lGg8nvy98Ju2vaixH_hz-13">
          <mxGeometry x="190" y="160" width="100" height="40" as="geometry" />
        </mxCell>
        <mxCell id="lGg8nvy98Ju2vaixH_hz-24" value="" style="html=1;rounded=1;curved=0;sourcePerimeterSpacing=0;targetPerimeterSpacing=0;startSize=6;endSize=6;noEdgeStyle=1;orthogonal=1;" edge="1" target="lGg8nvy98Ju2vaixH_hz-25" source="lGg8nvy98Ju2vaixH_hz-14" parent="lGg8nvy98Ju2vaixH_hz-13">
          <mxGeometry relative="1" as="geometry">
            <mxPoint x="350" y="300" as="sourcePoint" />
            <Array as="points">
              <mxPoint x="154" y="188" />
              <mxPoint x="178" y="250" />
            </Array>
          </mxGeometry>
        </mxCell>
        <mxCell id="lGg8nvy98Ju2vaixH_hz-25" value="Task" style="whiteSpace=wrap;html=1;" vertex="1" parent="lGg8nvy98Ju2vaixH_hz-13">
          <mxGeometry x="190" y="230" width="100" height="40" as="geometry" />
        </mxCell>
        <mxCell id="lGg8nvy98Ju2vaixH_hz-26" value="" style="html=1;rounded=1;curved=0;sourcePerimeterSpacing=0;targetPerimeterSpacing=0;startSize=6;endSize=6;noEdgeStyle=1;orthogonal=1;" edge="1" target="lGg8nvy98Ju2vaixH_hz-27" source="lGg8nvy98Ju2vaixH_hz-14" parent="lGg8nvy98Ju2vaixH_hz-13">
          <mxGeometry relative="1" as="geometry">
            <mxPoint x="310" y="316" as="sourcePoint" />
            <Array as="points">
              <mxPoint x="152" y="196" />
              <mxPoint x="178" y="320" />
            </Array>
          </mxGeometry>
        </mxCell>
        <mxCell id="lGg8nvy98Ju2vaixH_hz-27" value="Task" style="whiteSpace=wrap;html=1;" vertex="1" parent="lGg8nvy98Ju2vaixH_hz-13">
          <mxGeometry x="190" y="300" width="100" height="40" as="geometry" />
        </mxCell>
      </root>
    </mxGraphModel>
  </diagram>
</mxfile>
